<mxfile host="app.diagrams.net" modified="2023-06-22T07:54:09.489Z" agent="Mozilla/5.0 (Windows NT 10.0; Win64; x64) AppleWebKit/537.36 (KHTML, like Gecko) Chrome/114.0.0.0 Safari/537.36" etag="ZrwP1EhgZNpCDYjJxnme" version="21.5.0" type="github">
  <diagram name="Page-1" id="fWAt4YrEjQgHVjALh9d2">
    <mxGraphModel dx="867" dy="484" grid="1" gridSize="10" guides="1" tooltips="1" connect="1" arrows="1" fold="1" page="1" pageScale="1" pageWidth="850" pageHeight="1100" math="0" shadow="0">
      <root>
        <mxCell id="0" />
        <mxCell id="1" parent="0" />
        <mxCell id="8cFHMWG-tl82saMB3x8E-1" value="" style="shape=umlLifeline;perimeter=lifelinePerimeter;whiteSpace=wrap;html=1;container=1;dropTarget=0;collapsible=0;recursiveResize=0;outlineConnect=0;portConstraint=eastwest;newEdgeStyle={&quot;edgeStyle&quot;:&quot;elbowEdgeStyle&quot;,&quot;elbow&quot;:&quot;vertical&quot;,&quot;curved&quot;:0,&quot;rounded&quot;:0};participant=umlActor;" vertex="1" parent="1">
          <mxGeometry x="150" y="20" width="20" height="80" as="geometry" />
        </mxCell>
        <mxCell id="8cFHMWG-tl82saMB3x8E-2" value="" style="html=1;points=[];perimeter=orthogonalPerimeter;outlineConnect=0;targetShapes=umlLifeline;portConstraint=eastwest;newEdgeStyle={&quot;edgeStyle&quot;:&quot;elbowEdgeStyle&quot;,&quot;elbow&quot;:&quot;vertical&quot;,&quot;curved&quot;:0,&quot;rounded&quot;:0};" vertex="1" parent="1">
          <mxGeometry x="155" y="100" width="10" height="480" as="geometry" />
        </mxCell>
        <mxCell id="8cFHMWG-tl82saMB3x8E-3" value="" style="html=1;points=[];perimeter=orthogonalPerimeter;outlineConnect=0;targetShapes=umlLifeline;portConstraint=eastwest;newEdgeStyle={&quot;edgeStyle&quot;:&quot;elbowEdgeStyle&quot;,&quot;elbow&quot;:&quot;vertical&quot;,&quot;curved&quot;:0,&quot;rounded&quot;:0};" vertex="1" parent="1">
          <mxGeometry x="390" y="100" width="10" height="480" as="geometry" />
        </mxCell>
        <mxCell id="8cFHMWG-tl82saMB3x8E-4" value="" style="endArrow=none;dashed=1;html=1;rounded=0;" edge="1" parent="1">
          <mxGeometry width="50" height="50" relative="1" as="geometry">
            <mxPoint x="395" y="620" as="sourcePoint" />
            <mxPoint x="394.5" y="580" as="targetPoint" />
          </mxGeometry>
        </mxCell>
        <mxCell id="8cFHMWG-tl82saMB3x8E-5" value="" style="endArrow=classic;html=1;rounded=0;" edge="1" parent="1" target="8cFHMWG-tl82saMB3x8E-3">
          <mxGeometry width="50" height="50" relative="1" as="geometry">
            <mxPoint x="165" y="160" as="sourcePoint" />
            <mxPoint x="215" y="110" as="targetPoint" />
          </mxGeometry>
        </mxCell>
        <mxCell id="8cFHMWG-tl82saMB3x8E-6" value="" style="endArrow=block;dashed=1;endFill=0;endSize=12;html=1;rounded=0;" edge="1" parent="1" target="8cFHMWG-tl82saMB3x8E-2">
          <mxGeometry width="160" relative="1" as="geometry">
            <mxPoint x="390" y="200" as="sourcePoint" />
            <mxPoint x="550" y="200" as="targetPoint" />
          </mxGeometry>
        </mxCell>
        <mxCell id="8cFHMWG-tl82saMB3x8E-7" value="" style="endArrow=classic;html=1;rounded=0;entryX=0;entryY=0.176;entryDx=0;entryDy=0;entryPerimeter=0;" edge="1" parent="1">
          <mxGeometry width="50" height="50" relative="1" as="geometry">
            <mxPoint x="165" y="240" as="sourcePoint" />
            <mxPoint x="390" y="240" as="targetPoint" />
          </mxGeometry>
        </mxCell>
        <mxCell id="8cFHMWG-tl82saMB3x8E-8" value="" style="endArrow=classic;html=1;rounded=0;entryX=0;entryY=0.176;entryDx=0;entryDy=0;entryPerimeter=0;" edge="1" parent="1">
          <mxGeometry width="50" height="50" relative="1" as="geometry">
            <mxPoint x="165" y="520" as="sourcePoint" />
            <mxPoint x="390" y="520" as="targetPoint" />
          </mxGeometry>
        </mxCell>
        <mxCell id="8cFHMWG-tl82saMB3x8E-9" value="" style="endArrow=classic;html=1;rounded=0;entryX=0;entryY=0.176;entryDx=0;entryDy=0;entryPerimeter=0;" edge="1" parent="1">
          <mxGeometry width="50" height="50" relative="1" as="geometry">
            <mxPoint x="162.5" y="480" as="sourcePoint" />
            <mxPoint x="387.5" y="480" as="targetPoint" />
          </mxGeometry>
        </mxCell>
        <mxCell id="8cFHMWG-tl82saMB3x8E-12" value="Cliquer sur le bouton Faire un inventaire" style="text;strokeColor=none;align=center;fillColor=none;html=1;verticalAlign=middle;whiteSpace=wrap;rounded=0;" vertex="1" parent="1">
          <mxGeometry x="190" y="130" width="170" height="30" as="geometry" />
        </mxCell>
        <mxCell id="8cFHMWG-tl82saMB3x8E-13" value="Afficher la page pour scanner" style="text;strokeColor=none;align=center;fillColor=none;html=1;verticalAlign=middle;whiteSpace=wrap;rounded=0;" vertex="1" parent="1">
          <mxGeometry x="200" y="170" width="160" height="30" as="geometry" />
        </mxCell>
        <mxCell id="8cFHMWG-tl82saMB3x8E-14" value="Sacnner le lieu" style="text;strokeColor=none;align=center;fillColor=none;html=1;verticalAlign=middle;whiteSpace=wrap;rounded=0;" vertex="1" parent="1">
          <mxGeometry x="200" y="210" width="170" height="30" as="geometry" />
        </mxCell>
        <mxCell id="8cFHMWG-tl82saMB3x8E-17" value="" style="swimlane;startSize=0;" vertex="1" parent="1">
          <mxGeometry x="110" y="280" width="450" height="160" as="geometry" />
        </mxCell>
        <mxCell id="8cFHMWG-tl82saMB3x8E-19" value="Envoie les infos au systeme" style="text;strokeColor=none;align=center;fillColor=none;html=1;verticalAlign=middle;whiteSpace=wrap;rounded=0;" vertex="1" parent="8cFHMWG-tl82saMB3x8E-17">
          <mxGeometry x="300" y="10" width="100" height="30" as="geometry" />
        </mxCell>
        <mxCell id="8cFHMWG-tl82saMB3x8E-25" value="" style="endArrow=classic;html=1;rounded=0;" edge="1" parent="8cFHMWG-tl82saMB3x8E-17">
          <mxGeometry width="50" height="50" relative="1" as="geometry">
            <mxPoint x="290" y="120" as="sourcePoint" />
            <mxPoint x="410" y="120" as="targetPoint" />
            <Array as="points">
              <mxPoint x="350" y="120" />
            </Array>
          </mxGeometry>
        </mxCell>
        <mxCell id="8cFHMWG-tl82saMB3x8E-20" value="Envoie les infos au systeme" style="text;strokeColor=none;align=center;fillColor=none;html=1;verticalAlign=middle;whiteSpace=wrap;rounded=0;" vertex="1" parent="8cFHMWG-tl82saMB3x8E-17">
          <mxGeometry x="300" y="90" width="100" height="30" as="geometry" />
        </mxCell>
        <mxCell id="8cFHMWG-tl82saMB3x8E-10" value="" style="endArrow=classic;html=1;rounded=0;" edge="1" parent="8cFHMWG-tl82saMB3x8E-17">
          <mxGeometry width="50" height="50" relative="1" as="geometry">
            <mxPoint x="60" y="80" as="sourcePoint" />
            <mxPoint x="280" y="80" as="targetPoint" />
          </mxGeometry>
        </mxCell>
        <mxCell id="8cFHMWG-tl82saMB3x8E-26" value="Scanner les immobilisations" style="text;strokeColor=none;align=center;fillColor=none;html=1;verticalAlign=middle;whiteSpace=wrap;rounded=0;" vertex="1" parent="8cFHMWG-tl82saMB3x8E-17">
          <mxGeometry x="80" y="50" width="160" height="30" as="geometry" />
        </mxCell>
        <mxCell id="8cFHMWG-tl82saMB3x8E-22" value="" style="html=1;points=[];perimeter=orthogonalPerimeter;outlineConnect=0;targetShapes=umlLifeline;portConstraint=eastwest;newEdgeStyle={&quot;edgeStyle&quot;:&quot;elbowEdgeStyle&quot;,&quot;elbow&quot;:&quot;vertical&quot;,&quot;curved&quot;:0,&quot;rounded&quot;:0};" vertex="1" parent="1">
          <mxGeometry x="520" y="240" width="10" height="280" as="geometry" />
        </mxCell>
        <mxCell id="8cFHMWG-tl82saMB3x8E-18" value="" style="endArrow=classic;html=1;rounded=0;" edge="1" parent="1">
          <mxGeometry width="50" height="50" relative="1" as="geometry">
            <mxPoint x="400" y="320" as="sourcePoint" />
            <mxPoint x="520" y="320" as="targetPoint" />
          </mxGeometry>
        </mxCell>
        <mxCell id="8cFHMWG-tl82saMB3x8E-28" value="Cliquer sur le bouton terminer l&#39;inventaire" style="text;strokeColor=none;align=center;fillColor=none;html=1;verticalAlign=middle;whiteSpace=wrap;rounded=0;" vertex="1" parent="1">
          <mxGeometry x="210" y="450" width="115" height="30" as="geometry" />
        </mxCell>
        <mxCell id="8cFHMWG-tl82saMB3x8E-29" value="Cliquer sur le bouton afficher le rapport d&#39;inventaire" style="text;strokeColor=none;align=center;fillColor=none;html=1;verticalAlign=middle;whiteSpace=wrap;rounded=0;" vertex="1" parent="1">
          <mxGeometry x="197.5" y="490" width="162.5" height="30" as="geometry" />
        </mxCell>
        <mxCell id="8cFHMWG-tl82saMB3x8E-30" value="" style="endArrow=block;dashed=1;endFill=0;endSize=12;html=1;rounded=0;" edge="1" parent="1">
          <mxGeometry width="160" relative="1" as="geometry">
            <mxPoint x="391.25" y="549" as="sourcePoint" />
            <mxPoint x="166.25" y="549" as="targetPoint" />
          </mxGeometry>
        </mxCell>
        <mxCell id="8cFHMWG-tl82saMB3x8E-31" value="Affiche le rapport d&#39;inventaire" style="text;strokeColor=none;align=center;fillColor=none;html=1;verticalAlign=middle;whiteSpace=wrap;rounded=0;" vertex="1" parent="1">
          <mxGeometry x="203.75" y="520" width="162.5" height="30" as="geometry" />
        </mxCell>
        <mxCell id="8cFHMWG-tl82saMB3x8E-32" value="" style="endArrow=none;dashed=1;html=1;rounded=0;" edge="1" parent="1">
          <mxGeometry width="50" height="50" relative="1" as="geometry">
            <mxPoint x="160" y="620" as="sourcePoint" />
            <mxPoint x="159.5" y="580" as="targetPoint" />
            <Array as="points">
              <mxPoint x="160" y="600" />
            </Array>
          </mxGeometry>
        </mxCell>
        <mxCell id="8cFHMWG-tl82saMB3x8E-33" value="" style="endArrow=none;dashed=1;html=1;rounded=0;" edge="1" parent="1">
          <mxGeometry width="50" height="50" relative="1" as="geometry">
            <mxPoint x="395" y="100" as="sourcePoint" />
            <mxPoint x="394.5" y="60" as="targetPoint" />
            <Array as="points">
              <mxPoint x="395" y="80" />
            </Array>
          </mxGeometry>
        </mxCell>
      </root>
    </mxGraphModel>
  </diagram>
</mxfile>
